
<svg width="699px" height="201px" viewBox="0 0 699 201" version="1.1" xmlns="http://www.w3.org/2000/svg" xmlns:xlink="http://www.w3.org/1999/xlink">
    <!-- Generator: Sketch 43.2 (39069) - http://www.bohemiancoding.com/sketch -->
    <desc>Created with Sketch.</desc>
    <defs>
        <rect id="path-1" x="0.869494176" y="0.242734749" width="697.370829" height="199.527964"></rect>
        <path d="M-38.4540572,162.146812 C-38.4540572,162.146812 86.9830942,104.375942 142.732939,107.046024 C198.482784,109.716107 389.127345,159.9622 485.196272,162.146813 C581.265202,164.331425 748.01697,164.816895 748.01697,164.816895 L742.541539,205.839067 L-35.4674584,208.02368 L-38.4540572,162.146812 Z" id="path-3"></path>
        <path d="M-32.4808595,165.545099 C-32.4808595,165.545099 129.791008,63.8392378 217.39791,60.4409525 C305.004809,57.042666 432.433028,163.360485 528.501956,165.545098 C624.570885,167.729709 744.172716,110.738578 744.172716,110.738578 L748.514737,209.237354 L-29.4942607,211.421966 L-32.4808595,165.545099 Z" id="path-4"></path>
        <path d="M-155.429178,168.967607 C-155.429178,168.967607 29.9014303,63.9189494 150.031293,63.9189522 C270.161156,63.9189551 335.866332,165.035405 399.082673,167.001507 C431.918735,168.022746 607.646825,95.1520172 666.383269,95.1520208 C725.119713,95.1520246 793.979081,114.190022 793.979081,114.190022 L799.286917,212.636794 L-151.778256,214.820253 L-155.429178,168.967607 Z" id="path-5"></path>
    </defs>
    <g id="Page-1" stroke="none" stroke-width="1" fill="none" fill-rule="evenodd">
        <g id="Desktop-HD" transform="translate(-36.000000, -143.000000)">
            <g id="Line-graph" transform="translate(36.000000, 143.000000)">
                <mask id="mask-2" fill="white">
                    <use xlink:href="#path-1"></use>
                </mask>
                <g id="Rectangle-1"></g>
                <path d="M-29.7431439,174.647652 L698.789373,174.647652" id="Line" stroke="#C6CED3" stroke-linecap="square" mask="url(#mask-2)"></path>
                <path d="M-29.7431439,149.645973 L698.789373,149.645973" id="Line" stroke="#C6CED3" stroke-linecap="square" mask="url(#mask-2)"></path>
                <path d="M-29.7431439,124.644294 L698.789373,124.644294" id="Line" stroke="#C6CED3" stroke-linecap="square" mask="url(#mask-2)"></path>
                <path d="M-29.7431439,99.6426145 L698.789373,99.6426145" id="Line" stroke="#C6CED3" stroke-linecap="square" mask="url(#mask-2)"></path>
                <path d="M-29.7431439,74.6409353 L698.789373,74.6409353" id="Line" stroke="#C6CED3" stroke-linecap="square" mask="url(#mask-2)"></path>
                <path d="M-29.7431439,49.6392562 L698.789373,49.6392562" id="Line" stroke="#C6CED3" stroke-linecap="square" mask="url(#mask-2)"></path>
                <path d="M-29.7431439,24.637577 L698.789373,24.637577" id="Line" stroke="#C6CED3" stroke-linecap="square" mask="url(#mask-2)"></path>
                <path d="M608.393475,0.364102124 L608.393475,212.064434" id="Line" stroke="#E2E6E9" stroke-linecap="square" mask="url(#mask-2)"></path>
                <path d="M507.346881,0.364102124 L507.346881,212.064434" id="Line" stroke="#E2E6E9" stroke-linecap="square" mask="url(#mask-2)"></path>
                <path d="M406.300287,0.364102124 L406.300287,212.064434" id="Line" stroke="#E2E6E9" stroke-linecap="square" mask="url(#mask-2)"></path>
                <path d="M305.253692,0.364102124 L305.253692,212.064434" id="Line" stroke="#E2E6E9" stroke-linecap="square" mask="url(#mask-2)"></path>
                <path d="M204.207098,0.364102124 L204.207098,212.064434" id="Line" stroke="#E2E6E9" stroke-linecap="square" mask="url(#mask-2)"></path>
                <path d="M103.160504,0.364102124 L103.160504,212.064434" id="Line" stroke="#E2E6E9" stroke-linecap="square" mask="url(#mask-2)"></path>
                <g id="Path-19" style="mix-blend-mode: multiply;" mask="url(#mask-2)" transform="translate(354.781457, 157.489960) scale(-1, 1) translate(-354.781457, -157.489960) ">
                    <use fill-opacity="0.364947151" fill="#C0CCD2" fill-rule="evenodd" style="mix-blend-mode: multiply;" xlink:href="#path-3"></use>
                    <use stroke="#9D3D64" stroke-width="1" xlink:href="#path-3"></use>
                </g>
                <g id="Path-19-copy" style="mix-blend-mode: multiply;" mask="url(#mask-2)">
                    <use fill-opacity="0.364947151" fill="#C0CCD2" fill-rule="evenodd" style="mix-blend-mode: multiply;" xlink:href="#path-4"></use>
                    <use stroke="#9D3D64" stroke-width="1" xlink:href="#path-4"></use>
                </g>
                <g id="Path-19-copy-2" style="mix-blend-mode: multiply;" mask="url(#mask-2)">
                    <use fill-opacity="0.364947151" fill="#C0CCD2" fill-rule="evenodd" style="mix-blend-mode: multiply;" xlink:href="#path-5"></use>
                    <use stroke="#9D3D64" stroke-width="1" xlink:href="#path-5"></use>
                </g>
                <path d="M178.821008,68.2084645 C180.882825,68.2084645 182.554257,67.3933942 182.554257,66.3879539 C182.554257,65.3825136 180.882825,64.5674432 178.821008,64.5674432 C176.759192,64.5674432 175.08776,65.3825136 175.08776,66.3879539 C175.08776,67.3933942 176.759192,68.2084645 178.821008,68.2084645 Z" id="Oval-8-copy" fill="#A41C53"></path>
                <path d="M474.494293,123.794722 C476.55611,123.794722 478.227542,122.979652 478.227542,121.974211 C478.227542,120.968771 476.55611,120.153701 474.494293,120.153701 C472.432477,120.153701 470.761045,120.968771 470.761045,121.974211 C470.761045,122.979652 472.432477,123.794722 474.494293,123.794722 Z" id="Oval-8-copy-3" fill="#A41C53"></path>
                <path d="M499.880383,140.786154 C501.9422,140.786154 503.613632,139.971084 503.613632,138.965644 C503.613632,137.960204 501.9422,137.145133 499.880383,137.145133 C497.818567,137.145133 496.147135,137.960204 496.147135,138.965644 C496.147135,139.971084 497.818567,140.786154 499.880383,140.786154 Z" id="Oval-8-copy-4" fill="#A41C53"></path>
                <path d="M594.456013,111.41525 C596.51783,111.41525 598.189262,110.600179 598.189262,109.594739 C598.189262,108.589299 596.51783,107.774229 594.456013,107.774229 C592.394197,107.774229 590.722765,108.589299 590.722765,109.594739 C590.722765,110.600179 592.394197,111.41525 594.456013,111.41525 Z" id="Oval-8-copy-5" fill="#A41C53"></path>
                <path d="M625.815301,154.136566 C627.877117,154.136566 629.54855,153.321495 629.54855,152.316055 C629.54855,151.310615 627.877117,150.495544 625.815301,150.495544 C623.753485,150.495544 622.082053,151.310615 622.082053,152.316055 C622.082053,153.321495 623.753485,154.136566 625.815301,154.136566 Z" id="Oval-8-copy-6" fill="#A41C53"></path>
                <path d="M293.307297,115.784475 C295.369113,115.784475 297.040546,114.969405 297.040546,113.963965 C297.040546,112.958524 295.369113,112.143454 293.307297,112.143454 C291.245481,112.143454 289.574049,112.958524 289.574049,113.963965 C289.574049,114.969405 291.245481,115.784475 293.307297,115.784475 Z" id="Oval-8-copy-3" fill="#A41C53"></path>
                <path d="M359.510238,108.016963 C361.572054,108.016963 363.243487,107.201893 363.243487,106.196453 C363.243487,105.191012 361.572054,104.375942 359.510238,104.375942 C357.448422,104.375942 355.776989,105.191012 355.776989,106.196453 C355.776989,107.201893 357.448422,108.016963 359.510238,108.016963 Z" id="Oval-8-copy-4" fill="#A41C53"></path>
                <path d="M417.251149,135.44599 C419.312965,135.44599 420.984397,134.63092 420.984397,133.625479 C420.984397,132.620039 419.312965,131.804969 417.251149,131.804969 C415.189333,131.804969 413.5179,132.620039 413.5179,133.625479 C413.5179,134.63092 415.189333,135.44599 417.251149,135.44599 Z" id="Oval-8-copy-5" fill="#A41C53"></path>
                <path d="M345.07501,148.796401 C347.136827,148.796401 348.808259,147.981331 348.808259,146.975891 C348.808259,145.97045 347.136827,145.15538 345.07501,145.15538 C343.013194,145.15538 341.341762,145.97045 341.341762,146.975891 C341.341762,147.981331 343.013194,148.796401 345.07501,148.796401 Z" id="Oval-8-copy-6" fill="#A41C53"></path>
                <path d="M462.050131,153.165627 C464.111948,153.165627 465.78338,152.350556 465.78338,151.345116 C465.78338,150.339676 464.111948,149.524605 462.050131,149.524605 C459.988315,149.524605 458.316883,150.339676 458.316883,151.345116 C458.316883,152.350556 459.988315,153.165627 462.050131,153.165627 Z" id="Oval-8-copy-7" fill="#A41C53"></path>
                <polyline id="Rectangle-1" stroke="#576269" points="1.36726065 0 1.36726065 199.527964 698.240323 199.527964"></polyline>
            </g>
        </g>
    </g>
</svg>
